<svg xmlns="http://www.w3.org/2000/svg" width="946" height="1560" viewBox="0 0 946 1560">
<style> text { font-family: Arial, Helvetica, sans-serif; } </style>
<rect x="0" y="0" width="946" height="1560" fill="white"/>
<clipPath id="clip_0">
<rect x="60.00" y="40.00" width="14.00" height="360.00" rx="7.00" />
</clipPath>
<rect x="60.00" y="40.00" width="14.00" height="360.00" rx="7.00" fill="#ffffff" stroke="#222" stroke-width="1"/>
<rect clip-path="url(#clip_0)" x="60.00" y="101.91" width="14.00" height="1.00" fill="#b7b7b7" stroke="none"/>
<rect x="60.00" y="40.00" width="14.00" height="360.00" rx="7.00" fill="none" stroke="#222" stroke-width="1"/>
<line x1="58.00" y1="102.07" x2="76.00" y2="102.07" stroke="#d94c8a" stroke-width="2"/>
<text x="67.00" y="420.00" font-size="14.0" text-anchor="middle">chr1_mat</text>
<clipPath id="clip_1">
<rect x="284.00" y="40.00" width="14.00" height="360.00" rx="7.00" />
</clipPath>
<rect x="284.00" y="40.00" width="14.00" height="360.00" rx="7.00" fill="#ffffff" stroke="#222" stroke-width="1"/>
<rect clip-path="url(#clip_1)" x="284.00" y="336.45" width="14.00" height="1.41" fill="#b7b7b7" stroke="none"/>
<rect x="284.00" y="40.00" width="14.00" height="360.00" rx="7.00" fill="none" stroke="#222" stroke-width="1"/>
<line x1="282.00" y1="337.15" x2="300.00" y2="337.15" stroke="#d94c8a" stroke-width="2"/>
<text x="291.00" y="420.00" font-size="14.0" text-anchor="middle">chr1A_mat</text>
<clipPath id="clip_2">
<rect x="508.00" y="40.00" width="14.00" height="360.00" rx="7.00" />
</clipPath>
<rect x="508.00" y="40.00" width="14.00" height="360.00" rx="7.00" fill="#ffffff" stroke="#222" stroke-width="1"/>
<rect clip-path="url(#clip_2)" x="508.00" y="225.08" width="14.00" height="1.00" fill="#b7b7b7" stroke="none"/>
<rect x="508.00" y="40.00" width="14.00" height="360.00" rx="7.00" fill="none" stroke="#222" stroke-width="1"/>
<line x1="506.00" y1="225.19" x2="524.00" y2="225.19" stroke="#d94c8a" stroke-width="2"/>
<text x="515.00" y="420.00" font-size="14.0" text-anchor="middle">chr2_mat</text>
<clipPath id="clip_3">
<rect x="732.00" y="40.00" width="14.00" height="360.00" rx="7.00" />
</clipPath>
<rect x="732.00" y="40.00" width="14.00" height="360.00" rx="7.00" fill="#ffffff" stroke="#222" stroke-width="1"/>
<rect clip-path="url(#clip_3)" x="732.00" y="284.05" width="14.00" height="1.00" fill="#b7b7b7" stroke="none"/>
<rect x="732.00" y="40.00" width="14.00" height="360.00" rx="7.00" fill="none" stroke="#222" stroke-width="1"/>
<line x1="730.00" y1="284.32" x2="748.00" y2="284.32" stroke="#d94c8a" stroke-width="2"/>
<text x="739.00" y="420.00" font-size="14.0" text-anchor="middle">chr3_mat</text>
<clipPath id="clip_4">
<rect x="60.00" y="560.00" width="14.00" height="360.00" rx="7.00" />
</clipPath>
<rect x="60.00" y="560.00" width="14.00" height="360.00" rx="7.00" fill="#ffffff" stroke="#222" stroke-width="1"/>
<rect clip-path="url(#clip_4)" x="60.00" y="832.34" width="14.00" height="1.00" fill="#b7b7b7" stroke="none"/>
<rect x="60.00" y="560.00" width="14.00" height="360.00" rx="7.00" fill="none" stroke="#222" stroke-width="1"/>
<line x1="58.00" y1="832.48" x2="76.00" y2="832.48" stroke="#d94c8a" stroke-width="2"/>
<text x="67.00" y="940.00" font-size="14.0" text-anchor="middle">chr4_mat</text>
<clipPath id="clip_5">
<rect x="284.00" y="560.00" width="14.00" height="360.00" rx="7.00" />
</clipPath>
<rect x="284.00" y="560.00" width="14.00" height="360.00" rx="7.00" fill="#ffffff" stroke="#222" stroke-width="1"/>
<rect clip-path="url(#clip_5)" x="284.00" y="919.20" width="14.00" height="1.00" fill="#b7b7b7" stroke="none"/>
<rect x="284.00" y="560.00" width="14.00" height="360.00" rx="7.00" fill="none" stroke="#222" stroke-width="1"/>
<line x1="282.00" y1="919.47" x2="300.00" y2="919.47" stroke="#d94c8a" stroke-width="2"/>
<text x="291.00" y="940.00" font-size="14.0" text-anchor="middle">chr4A_mat</text>
<clipPath id="clip_6">
<rect x="508.00" y="560.00" width="14.00" height="360.00" rx="7.00" />
</clipPath>
<rect x="508.00" y="560.00" width="14.00" height="360.00" rx="7.00" fill="#ffffff" stroke="#222" stroke-width="1"/>
<rect clip-path="url(#clip_6)" x="508.00" y="566.17" width="14.00" height="1.00" fill="#b7b7b7" stroke="none"/>
<rect x="508.00" y="560.00" width="14.00" height="360.00" rx="7.00" fill="none" stroke="#222" stroke-width="1"/>
<line x1="506.00" y1="566.18" x2="524.00" y2="566.18" stroke="#d94c8a" stroke-width="2"/>
<text x="515.00" y="940.00" font-size="14.0" text-anchor="middle">chr5_mat</text>
<clipPath id="clip_7">
<rect x="732.00" y="560.00" width="14.00" height="360.00" rx="7.00" />
</clipPath>
<rect x="732.00" y="560.00" width="14.00" height="360.00" rx="7.00" fill="#ffffff" stroke="#222" stroke-width="1"/>
<rect clip-path="url(#clip_7)" x="732.00" y="560.03" width="14.00" height="2.30" fill="#b7b7b7" stroke="none"/>
<rect x="732.00" y="560.00" width="14.00" height="360.00" rx="7.00" fill="none" stroke="#222" stroke-width="1"/>
<line x1="730.00" y1="561.18" x2="748.00" y2="561.18" stroke="#d94c8a" stroke-width="2"/>
<text x="739.00" y="940.00" font-size="14.0" text-anchor="middle">chr6_mat</text>
<clipPath id="clip_8">
<rect x="60.00" y="1080.00" width="14.00" height="360.00" rx="7.00" />
</clipPath>
<rect x="60.00" y="1080.00" width="14.00" height="360.00" rx="7.00" fill="#ffffff" stroke="#222" stroke-width="1"/>
<rect clip-path="url(#clip_8)" x="60.00" y="1118.81" width="14.00" height="3.67" fill="#b7b7b7" stroke="none"/>
<rect x="60.00" y="1080.00" width="14.00" height="360.00" rx="7.00" fill="none" stroke="#222" stroke-width="1"/>
<line x1="58.00" y1="1120.65" x2="76.00" y2="1120.65" stroke="#d94c8a" stroke-width="2"/>
<text x="67.00" y="1460.00" font-size="14.0" text-anchor="middle">chr7_mat</text>
<clipPath id="clip_9">
<rect x="284.00" y="1080.00" width="14.00" height="360.00" rx="7.00" />
</clipPath>
<rect x="284.00" y="1080.00" width="14.00" height="360.00" rx="7.00" fill="#ffffff" stroke="#222" stroke-width="1"/>
<rect clip-path="url(#clip_9)" x="284.00" y="1371.86" width="14.00" height="6.94" fill="#b7b7b7" stroke="none"/>
<rect x="284.00" y="1080.00" width="14.00" height="360.00" rx="7.00" fill="none" stroke="#222" stroke-width="1"/>
<line x1="282.00" y1="1375.34" x2="300.00" y2="1375.34" stroke="#d94c8a" stroke-width="2"/>
<text x="291.00" y="1460.00" font-size="14.0" text-anchor="middle">chr8_mat</text>
<clipPath id="clip_10">
<rect x="508.00" y="1080.00" width="14.00" height="360.00" rx="7.00" />
</clipPath>
<rect x="508.00" y="1080.00" width="14.00" height="360.00" rx="7.00" fill="#ffffff" stroke="#222" stroke-width="1"/>
<rect clip-path="url(#clip_10)" x="508.00" y="1234.55" width="14.00" height="1.46" fill="#b7b7b7" stroke="none"/>
<rect x="508.00" y="1080.00" width="14.00" height="360.00" rx="7.00" fill="none" stroke="#222" stroke-width="1"/>
<line x1="506.00" y1="1235.28" x2="524.00" y2="1235.28" stroke="#d94c8a" stroke-width="2"/>
<text x="515.00" y="1460.00" font-size="14.0" text-anchor="middle">chrZ_pat</text>
<clipPath id="clip_11">
<rect x="732.00" y="1080.00" width="14.00" height="360.00" rx="7.00" />
</clipPath>
<rect x="732.00" y="1080.00" width="14.00" height="360.00" rx="7.00" fill="#ffffff" stroke="#222" stroke-width="1"/>
<rect clip-path="url(#clip_11)" x="732.00" y="1115.46" width="14.00" height="1.00" fill="#b7b7b7" stroke="none"/>
<rect x="732.00" y="1080.00" width="14.00" height="360.00" rx="7.00" fill="none" stroke="#222" stroke-width="1"/>
<line x1="730.00" y1="1115.73" x2="748.00" y2="1115.73" stroke="#d94c8a" stroke-width="2"/>
<text x="739.00" y="1460.00" font-size="14.0" text-anchor="middle">chrW_mat</text>
</svg>